<mxfile host="app.diagrams.net" modified="2021-05-18T14:28:11.852Z" agent="5.0 (Macintosh; Intel Mac OS X 10_15_7) AppleWebKit/605.1.15 (KHTML, like Gecko) Version/14.1 Safari/605.1.15" etag="t7q9a1hOyx8OhoALqdBv" version="14.6.13" type="github">
  <diagram id="IvfS0bd020x2TjzFFkCU" name="Page-1">
    <mxGraphModel dx="2253" dy="9008" grid="1" gridSize="10" guides="1" tooltips="1" connect="1" arrows="1" fold="1" page="1" pageScale="1" pageWidth="827" pageHeight="1169" math="0" shadow="0">
      <root>
        <mxCell id="0" />
        <mxCell id="1" parent="0" />
        <mxCell id="D5ZAGQ3Sc8jKeqQqHXvd-1" value="&lt;font style=&quot;font-size: 15px;&quot;&gt;&lt;font color=&quot;#ff0000&quot; style=&quot;font-size: 15px;&quot;&gt;Use Case Diagram Discoteca Diggh&amp;amp;Sborto&lt;/font&gt;&lt;br style=&quot;font-size: 15px;&quot;&gt;&lt;br style=&quot;font-size: 15px;&quot;&gt;&lt;font color=&quot;#33ff33&quot; style=&quot;font-size: 15px;&quot;&gt;Caso d&#39;Uso 1&lt;br style=&quot;font-size: 15px;&quot;&gt;&lt;/font&gt;&lt;br style=&quot;font-size: 15px;&quot;&gt;&lt;ul style=&quot;font-size: 15px;&quot;&gt;&lt;li style=&quot;font-size: 15px;&quot;&gt;Titolo: Registrazione dell&#39;utente. &amp;nbsp;&lt;br style=&quot;font-size: 15px;&quot;&gt;&lt;/li&gt;&lt;li style=&quot;font-size: 15px;&quot;&gt;Attore Principale: Utente anonimo&lt;br style=&quot;font-size: 15px;&quot;&gt;&lt;/li&gt;&lt;li style=&quot;font-size: 15px;&quot;&gt;Ambito: Il sistema informativo visto dal suo interno (White Box)&amp;nbsp;&lt;br style=&quot;font-size: 15px;&quot;&gt;&lt;/li&gt;&lt;li style=&quot;font-size: 15px;&quot;&gt;Livello: Livello di dettaglio vicino alla percezione dell&#39;utente&amp;nbsp;&lt;br style=&quot;font-size: 15px;&quot;&gt;&lt;/li&gt;&lt;li style=&quot;font-size: 15px;&quot;&gt;Racconto:&amp;nbsp;&lt;/li&gt;&lt;/ul&gt;&lt;ol style=&quot;font-size: 15px;&quot;&gt;&lt;li style=&quot;font-size: 15px;&quot;&gt;L&#39;utente anonimo accede alla schermata di selezione.&lt;/li&gt;&lt;li style=&quot;font-size: 15px;&quot;&gt;L&#39;utente entra nella sezione inserisci (Accede alle funzioni di registrazione).&lt;/li&gt;&lt;li style=&quot;font-size: 15px;&quot;&gt;L&#39;utente fornisce le seguenti informazioni personali: Nome, Cognome, Età.&lt;/li&gt;&lt;li style=&quot;font-size: 15px;&quot;&gt;L&#39;utente seleziona il tipo di entrata (Biglietto di acquisto) che vuole effettuare.&amp;nbsp;&lt;/li&gt;&lt;li style=&quot;font-size: 15px;&quot;&gt;&amp;nbsp;L&#39;utente inserisce l&#39;orario di entrata (Ore e Minuti).&lt;span style=&quot;font-size: 15px;&quot;&gt;&amp;nbsp;&lt;/span&gt;&lt;/li&gt;&lt;li style=&quot;font-size: 15px;&quot;&gt;L&#39;utente passa alla schermata successiva.&amp;nbsp;&lt;/li&gt;&lt;/ol&gt;&lt;/font&gt;" style="text;html=1;align=center;verticalAlign=middle;resizable=0;points=[];autosize=1;strokeColor=none;fontSize=15;" parent="1" vertex="1">
          <mxGeometry x="-703" y="-8090" width="580" height="310" as="geometry" />
        </mxCell>
        <mxCell id="D5ZAGQ3Sc8jKeqQqHXvd-2" value="Utente Anonimo&amp;nbsp;" style="shape=umlActor;verticalLabelPosition=bottom;verticalAlign=top;html=1;fontSize=15;labelBorderColor=none;labelBackgroundColor=none;fillColor=#ffff88;strokeColor=#36393d;" parent="1" vertex="1">
          <mxGeometry x="-585" y="-7680" width="30" height="60" as="geometry" />
        </mxCell>
        <mxCell id="D5ZAGQ3Sc8jKeqQqHXvd-5" value="Fase di registrazione dell&#39;Utente Anonimo" style="ellipse;whiteSpace=wrap;html=1;fontSize=15;labelBorderColor=none;labelBackgroundColor=none;fillColor=#ffff88;strokeColor=#36393d;" parent="1" vertex="1">
          <mxGeometry x="-415" y="-7690" width="140" height="70" as="geometry" />
        </mxCell>
        <mxCell id="D5ZAGQ3Sc8jKeqQqHXvd-9" value="" style="line;strokeWidth=1;fillColor=#ffff88;align=left;verticalAlign=middle;spacingTop=-1;spacingLeft=3;spacingRight=3;rotatable=0;labelPosition=right;points=[];portConstraint=eastwest;fontSize=15;labelBorderColor=none;labelBackgroundColor=none;strokeColor=#36393d;" parent="1" vertex="1">
          <mxGeometry x="-545" y="-7680" width="130" height="50" as="geometry" />
        </mxCell>
        <mxCell id="D5ZAGQ3Sc8jKeqQqHXvd-10" value="&lt;div style=&quot;text-align: center; font-size: 15px;&quot;&gt;&lt;span style=&quot;font-family: helvetica; font-size: 15px;&quot;&gt;&lt;font color=&quot;#ff0000&quot; style=&quot;font-size: 15px;&quot;&gt;Use Case Diagram Discoteca Diggh&amp;amp;Sborto&lt;/font&gt;&lt;/span&gt;&lt;/div&gt;&lt;br style=&quot;color: rgb(0, 0, 0); font-family: helvetica; font-size: 15px; font-style: normal; font-weight: normal; letter-spacing: normal; text-align: center; text-indent: 0px; text-transform: none; word-spacing: 0px; text-decoration: none;&quot;&gt;&lt;div style=&quot;text-align: center; font-size: 15px;&quot;&gt;&lt;span style=&quot;font-family: helvetica; font-size: 15px;&quot;&gt;&lt;font color=&quot;#33ff33&quot; style=&quot;font-size: 15px;&quot;&gt;Caso d&#39;Uso 2&lt;/font&gt;&lt;/span&gt;&lt;/div&gt;&lt;br style=&quot;color: rgb(0, 0, 0); font-family: helvetica; font-size: 15px; font-style: normal; font-weight: normal; letter-spacing: normal; text-align: center; text-indent: 0px; text-transform: none; word-spacing: 0px; text-decoration: none;&quot;&gt;&lt;ul style=&quot;color: rgb(0, 0, 0); font-family: helvetica; font-size: 15px; font-style: normal; font-weight: normal; letter-spacing: normal; text-align: center; text-indent: 0px; text-transform: none; word-spacing: 0px; text-decoration: none;&quot;&gt;&lt;li style=&quot;font-size: 15px;&quot;&gt;Titolo: Visualizzazione delle entrate&amp;nbsp;&lt;br style=&quot;font-size: 15px;&quot;&gt;&lt;/li&gt;&lt;li style=&quot;font-size: 15px;&quot;&gt;Attore Principale: Utente registrato&lt;br style=&quot;font-size: 15px;&quot;&gt;&lt;/li&gt;&lt;li style=&quot;font-size: 15px;&quot;&gt;Ambito: L&#39;intera organizzazione così come può essere percepita dall&#39;esterno (Black Box).&lt;br style=&quot;font-size: 15px;&quot;&gt;&lt;/li&gt;&lt;li style=&quot;font-size: 15px;&quot;&gt;Livello: Livello di dettaglio astratto o non ben definito&lt;br style=&quot;font-size: 15px;&quot;&gt;&lt;/li&gt;&lt;li style=&quot;font-size: 15px;&quot;&gt;Racconto:&amp;nbsp;&lt;/li&gt;&lt;/ul&gt;&lt;ol style=&quot;color: rgb(0, 0, 0); font-family: helvetica; font-size: 15px; font-style: normal; font-weight: normal; letter-spacing: normal; text-align: center; text-indent: 0px; text-transform: none; word-spacing: 0px; text-decoration: none;&quot;&gt;&lt;li style=&quot;font-size: 15px;&quot;&gt;L&#39;utente anonimo e/o registrato accede alla schermata di visualizzazione degli utenti entrati e registrati.&lt;/li&gt;&lt;li style=&quot;font-size: 15px;&quot;&gt;Non possibile effettuare interazioni con questa schermata.&lt;/li&gt;&lt;li style=&quot;font-size: 15px;&quot;&gt;L&#39;utente può passare alla schermata precedente o successiva.&lt;/li&gt;&lt;/ol&gt;" style="text;whiteSpace=wrap;html=1;fontSize=15;" parent="1" vertex="1">
          <mxGeometry x="-650" y="-7480" width="470" height="250" as="geometry" />
        </mxCell>
        <mxCell id="D5ZAGQ3Sc8jKeqQqHXvd-11" value="Utente Anonimo&amp;nbsp;" style="shape=umlActor;verticalLabelPosition=bottom;verticalAlign=top;html=1;fontSize=15;fillColor=#ffff88;strokeColor=#36393d;" parent="1" vertex="1">
          <mxGeometry x="-615" y="-7020" width="30" height="60" as="geometry" />
        </mxCell>
        <mxCell id="D5ZAGQ3Sc8jKeqQqHXvd-51" value="" style="edgeStyle=orthogonalEdgeStyle;rounded=0;orthogonalLoop=1;jettySize=auto;html=1;fontSize=15;strokeColor=#36393d;fillColor=#ffff88;" parent="1" source="D5ZAGQ3Sc8jKeqQqHXvd-12" target="D5ZAGQ3Sc8jKeqQqHXvd-19" edge="1">
          <mxGeometry relative="1" as="geometry" />
        </mxCell>
        <mxCell id="D5ZAGQ3Sc8jKeqQqHXvd-12" value="Fase di registrazione dell&#39;Utente Anonimo" style="ellipse;whiteSpace=wrap;html=1;fontSize=15;fillColor=#ffff88;strokeColor=#36393d;" parent="1" vertex="1">
          <mxGeometry x="-445" y="-7030" width="140" height="70" as="geometry" />
        </mxCell>
        <mxCell id="D5ZAGQ3Sc8jKeqQqHXvd-13" value="" style="line;strokeWidth=1;fillColor=#ffff88;align=left;verticalAlign=middle;spacingTop=-1;spacingLeft=3;spacingRight=3;rotatable=0;labelPosition=right;points=[];portConstraint=eastwest;fontSize=15;strokeColor=#36393d;" parent="1" vertex="1">
          <mxGeometry x="-575" y="-7020" width="130" height="50" as="geometry" />
        </mxCell>
        <mxCell id="D5ZAGQ3Sc8jKeqQqHXvd-15" value="Visualizzazione tabella delle&amp;nbsp;entrate e uscite&lt;br style=&quot;font-size: 15px;&quot;&gt;(Persone all&#39;interno della discoteca)" style="ellipse;whiteSpace=wrap;html=1;fontSize=15;fillColor=#ffff88;strokeColor=#36393d;" parent="1" vertex="1">
          <mxGeometry x="-475" y="-6796" width="200" height="80" as="geometry" />
        </mxCell>
        <mxCell id="D5ZAGQ3Sc8jKeqQqHXvd-49" value="" style="edgeStyle=orthogonalEdgeStyle;rounded=0;orthogonalLoop=1;jettySize=auto;html=1;fontSize=15;strokeColor=#36393d;fillColor=#ffff88;" parent="1" source="D5ZAGQ3Sc8jKeqQqHXvd-19" target="D5ZAGQ3Sc8jKeqQqHXvd-15" edge="1">
          <mxGeometry relative="1" as="geometry" />
        </mxCell>
        <mxCell id="D5ZAGQ3Sc8jKeqQqHXvd-19" value="Utente Registrato&lt;br style=&quot;font-size: 15px;&quot;&gt;" style="shape=umlActor;verticalLabelPosition=bottom;verticalAlign=top;html=1;fontSize=15;fillColor=#ffff88;strokeColor=#36393d;" parent="1" vertex="1">
          <mxGeometry x="-390" y="-6926" width="30" height="60" as="geometry" />
        </mxCell>
        <mxCell id="D5ZAGQ3Sc8jKeqQqHXvd-26" value="" style="edgeStyle=orthogonalEdgeStyle;rounded=0;orthogonalLoop=1;jettySize=auto;html=1;strokeColor=#36393d;exitX=0.5;exitY=1;exitDx=0;exitDy=0;fontSize=15;fillColor=#ffff88;" parent="1" source="D5ZAGQ3Sc8jKeqQqHXvd-28" target="D5ZAGQ3Sc8jKeqQqHXvd-33" edge="1">
          <mxGeometry relative="1" as="geometry" />
        </mxCell>
        <mxCell id="D5ZAGQ3Sc8jKeqQqHXvd-37" value="" style="edgeStyle=orthogonalEdgeStyle;rounded=0;orthogonalLoop=1;jettySize=auto;html=1;strokeColor=#36393d;fontSize=15;fillColor=#ffff88;" parent="1" source="D5ZAGQ3Sc8jKeqQqHXvd-27" edge="1">
          <mxGeometry relative="1" as="geometry">
            <mxPoint x="-498" y="-5950" as="targetPoint" />
          </mxGeometry>
        </mxCell>
        <mxCell id="D5ZAGQ3Sc8jKeqQqHXvd-27" value="Utente Anonimo&amp;nbsp;" style="shape=umlActor;verticalLabelPosition=bottom;verticalAlign=top;html=1;fontSize=15;fillColor=#ffff88;strokeColor=#36393d;" parent="1" vertex="1">
          <mxGeometry x="-668" y="-5980" width="30" height="60" as="geometry" />
        </mxCell>
        <mxCell id="D5ZAGQ3Sc8jKeqQqHXvd-28" value="Fase di registrazione dell&#39;Utente Anonimo" style="ellipse;whiteSpace=wrap;html=1;fontSize=15;fillColor=#ffff88;strokeColor=#36393d;" parent="1" vertex="1">
          <mxGeometry x="-498" y="-5990" width="140" height="70" as="geometry" />
        </mxCell>
        <mxCell id="D5ZAGQ3Sc8jKeqQqHXvd-30" value="" style="edgeStyle=orthogonalEdgeStyle;rounded=0;orthogonalLoop=1;jettySize=auto;html=1;strokeColor=#36393d;fontSize=15;fillColor=#ffff88;" parent="1" source="D5ZAGQ3Sc8jKeqQqHXvd-31" target="D5ZAGQ3Sc8jKeqQqHXvd-34" edge="1">
          <mxGeometry relative="1" as="geometry" />
        </mxCell>
        <mxCell id="D5ZAGQ3Sc8jKeqQqHXvd-31" value="Visualizzazione tabella delle&amp;nbsp;entrate e uscite&lt;br style=&quot;font-size: 15px;&quot;&gt;(Persone all&#39;interno della discoteca)" style="ellipse;whiteSpace=wrap;html=1;fontSize=15;fillColor=#ffff88;strokeColor=#36393d;" parent="1" vertex="1">
          <mxGeometry x="-528" y="-5640" width="200" height="80" as="geometry" />
        </mxCell>
        <mxCell id="D5ZAGQ3Sc8jKeqQqHXvd-39" value="" style="edgeStyle=orthogonalEdgeStyle;rounded=0;orthogonalLoop=1;jettySize=auto;html=1;strokeColor=#36393d;entryX=0.5;entryY=0;entryDx=0;entryDy=0;fontSize=15;fillColor=#ffff88;" parent="1" source="D5ZAGQ3Sc8jKeqQqHXvd-33" target="D5ZAGQ3Sc8jKeqQqHXvd-31" edge="1">
          <mxGeometry relative="1" as="geometry">
            <mxPoint x="-558" y="-5810" as="targetPoint" />
          </mxGeometry>
        </mxCell>
        <mxCell id="D5ZAGQ3Sc8jKeqQqHXvd-33" value="Utente Registrato&lt;br style=&quot;font-size: 15px;&quot;&gt;" style="shape=umlActor;verticalLabelPosition=bottom;verticalAlign=top;html=1;fontSize=15;fillColor=#ffff88;strokeColor=#36393d;" parent="1" vertex="1">
          <mxGeometry x="-443" y="-5850" width="30" height="60" as="geometry" />
        </mxCell>
        <mxCell id="D5ZAGQ3Sc8jKeqQqHXvd-34" value="Visualizzazione schermata di uscita&amp;nbsp;" style="ellipse;whiteSpace=wrap;html=1;fontSize=15;fillColor=#ffff88;strokeColor=#36393d;" parent="1" vertex="1">
          <mxGeometry x="-528" y="-5480" width="200" height="80" as="geometry" />
        </mxCell>
        <mxCell id="D5ZAGQ3Sc8jKeqQqHXvd-35" value="&lt;div style=&quot;text-align: center; font-size: 15px;&quot;&gt;&lt;span style=&quot;color: rgb(255, 0, 0); font-family: helvetica; font-size: 15px;&quot;&gt;Use Case Diagram Discoteca Diggh&amp;amp;Sborto&lt;/span&gt;&lt;/div&gt;&lt;br style=&quot;color: rgb(0, 0, 0); font-family: helvetica; font-size: 15px; font-style: normal; font-weight: normal; letter-spacing: normal; text-align: center; text-indent: 0px; text-transform: none; word-spacing: 0px; text-decoration: none;&quot;&gt;&lt;div style=&quot;text-align: center; font-size: 15px;&quot;&gt;&lt;span style=&quot;color: rgb(51, 255, 51); font-family: helvetica; font-size: 15px;&quot;&gt;Caso d&#39;Uso 3&lt;/span&gt;&lt;/div&gt;&lt;br style=&quot;color: rgb(0, 0, 0); font-family: helvetica; font-size: 15px; font-style: normal; font-weight: normal; letter-spacing: normal; text-align: center; text-indent: 0px; text-transform: none; word-spacing: 0px; text-decoration: none;&quot;&gt;&lt;ul style=&quot;color: rgb(0, 0, 0); font-family: helvetica; font-size: 15px; font-style: normal; font-weight: normal; letter-spacing: normal; text-align: center; text-indent: 0px; text-transform: none; word-spacing: 0px; text-decoration: none;&quot;&gt;&lt;li style=&quot;font-size: 15px;&quot;&gt;Titolo: Uscita dalla discoteca&amp;nbsp;&lt;br style=&quot;font-size: 15px;&quot;&gt;&lt;/li&gt;&lt;li style=&quot;font-size: 15px;&quot;&gt;Attore Principale: Utente registrato&lt;br style=&quot;font-size: 15px;&quot;&gt;&lt;/li&gt;&lt;li style=&quot;font-size: 15px;&quot;&gt;Ambito:&amp;nbsp;&lt;span style=&quot;font-size: 15px;&quot;&gt;Il sistema informativo visto dal suo interno (White Box)&amp;nbsp;&lt;/span&gt;&lt;/li&gt;&lt;li style=&quot;font-size: 15px;&quot;&gt;Livello: Livello di dettaglio vicino alla percezione dell&#39;utente&lt;br style=&quot;font-size: 15px;&quot;&gt;&lt;/li&gt;&lt;li style=&quot;font-size: 15px;&quot;&gt;Racconto:&amp;nbsp;&lt;/li&gt;&lt;/ul&gt;&lt;ol style=&quot;color: rgb(0, 0, 0); font-family: helvetica; font-size: 15px; font-style: normal; font-weight: normal; letter-spacing: normal; text-align: center; text-indent: 0px; text-transform: none; word-spacing: 0px; text-decoration: none;&quot;&gt;&lt;li style=&quot;font-size: 15px;&quot;&gt;L&#39;utente registrato accede alla schermata di uscita dove visualizzerà tutti gli utenti ancora all&#39;interno della discoteca.&amp;nbsp;&lt;/li&gt;&lt;li style=&quot;font-size: 15px;&quot;&gt;Il singolo utente può far effettuare l&#39;uscita a se stesso o a più utenti che lo accompagnano tramite la casella di check.&lt;/li&gt;&lt;li style=&quot;font-size: 15px;&quot;&gt;Si inserisce l&#39;orario di uscita per il singolo o tutti.&lt;/li&gt;&lt;li style=&quot;font-size: 15px;&quot;&gt;Per salvare le scelte fatte si preme il bottone relativo.&lt;/li&gt;&lt;li style=&quot;font-size: 15px;&quot;&gt;L&#39;utente torna alla schermata di visualizzazione degli utenti all&#39;interno della discoteca.&lt;/li&gt;&lt;li style=&quot;font-size: 15px;&quot;&gt;L&#39;utente può passare alla schermata precedente o successiva andando a perdere però tutti i dati relativi alla possibile uscita.&amp;nbsp;&lt;/li&gt;&lt;/ol&gt;" style="text;whiteSpace=wrap;html=1;fontSize=15;" parent="1" vertex="1">
          <mxGeometry x="-676.5" y="-6520" width="470" height="250" as="geometry" />
        </mxCell>
        <mxCell id="D5ZAGQ3Sc8jKeqQqHXvd-45" value="" style="endArrow=none;html=1;strokeColor=#36393d;entryX=0;entryY=0;entryDx=0;entryDy=0;fontSize=15;fillColor=#ffff88;" parent="1" target="D5ZAGQ3Sc8jKeqQqHXvd-31" edge="1">
          <mxGeometry width="50" height="50" relative="1" as="geometry">
            <mxPoint x="-623" y="-5930" as="sourcePoint" />
            <mxPoint x="-418" y="-5740" as="targetPoint" />
            <Array as="points">
              <mxPoint x="-523" y="-5800" />
            </Array>
          </mxGeometry>
        </mxCell>
        <mxCell id="D5ZAGQ3Sc8jKeqQqHXvd-48" value="" style="endArrow=none;html=1;strokeColor=#36393d;entryX=1;entryY=0.5;entryDx=0;entryDy=0;exitX=1;exitY=0.5;exitDx=0;exitDy=0;fontSize=15;fillColor=#ffff88;" parent="1" source="D5ZAGQ3Sc8jKeqQqHXvd-28" target="D5ZAGQ3Sc8jKeqQqHXvd-34" edge="1">
          <mxGeometry width="50" height="50" relative="1" as="geometry">
            <mxPoint x="-338" y="-5490" as="sourcePoint" />
            <mxPoint x="-258" y="-5590" as="targetPoint" />
            <Array as="points">
              <mxPoint x="-158" y="-5760" />
            </Array>
          </mxGeometry>
        </mxCell>
        <mxCell id="D5ZAGQ3Sc8jKeqQqHXvd-50" value="" style="endArrow=none;html=1;fontSize=15;strokeColor=#36393d;entryX=0;entryY=0;entryDx=0;entryDy=0;fillColor=#ffff88;" parent="1" target="D5ZAGQ3Sc8jKeqQqHXvd-15" edge="1">
          <mxGeometry width="50" height="50" relative="1" as="geometry">
            <mxPoint x="-570" y="-6966" as="sourcePoint" />
            <mxPoint x="-480" y="-6896" as="targetPoint" />
            <Array as="points">
              <mxPoint x="-500" y="-6886" />
            </Array>
          </mxGeometry>
        </mxCell>
        <mxCell id="D5ZAGQ3Sc8jKeqQqHXvd-53" value="" style="endArrow=none;html=1;strokeColor=#36393d;entryX=1;entryY=0.5;entryDx=0;entryDy=0;exitX=1;exitY=0.5;exitDx=0;exitDy=0;fontSize=15;fillColor=#ffff88;" parent="1" edge="1">
          <mxGeometry width="50" height="50" relative="1" as="geometry">
            <mxPoint x="-528" y="-5440" as="sourcePoint" />
            <mxPoint x="-528" y="-5600" as="targetPoint" />
            <Array as="points">
              <mxPoint x="-608" y="-5520" />
            </Array>
          </mxGeometry>
        </mxCell>
      </root>
    </mxGraphModel>
  </diagram>
</mxfile>
